HIERARCHY
ROOT hip
{
  OFFSET 0 0 0
  CHANNELS 6 Xposition Yposition Zposition Zrotation Yrotation Xrotation
  JOINT abdomen
  {
    OFFSET 0 20.6881 -0.73152
    CHANNELS 3 Zrotation Xrotation Yrotation
    JOINT chest
    {
      OFFSET 0 11.7043 -0.48768
      CHANNELS 3 Zrotation Xrotation Yrotation
      JOINT neck
      {
        OFFSET 0 22.1894 -2.19456
        CHANNELS 3 Zrotation Xrotation Yrotation
        JOINT head
        {
          OFFSET -0.24384 7.07133 1.2192
          CHANNELS 3 Zrotation Xrotation Yrotation
          JOINT leftEye
          {
            OFFSET 4.14528 8.04674 8.04672
            CHANNELS 3 Zrotation Xrotation Yrotation
            End Site
            {
              OFFSET 1 0 0
            }
          }
          JOINT rightEye
          {
            OFFSET -3.6576 8.04674 8.04672
            CHANNELS 3 Zrotation Xrotation Yrotation
            End Site
            {
              OFFSET 1 0 0
            }
          }
        }
      }
      JOINT rCollar
      {
        OFFSET -2.68224 19.2634 -4.8768
        CHANNELS 3 Zrotation Xrotation Yrotation
        JOINT rShldr
        {
          OFFSET -8.77824 -1.95073 1.46304
          CHANNELS 3 Zrotation Xrotation Yrotation
          JOINT rForeArm
          {
            OFFSET -28.1742 -1.7115 0.48768
            CHANNELS 3 Zrotation Xrotation Yrotation
            JOINT rHand
            {
              OFFSET -22.5879 0.773209 7.07136
              CHANNELS 3 Zrotation Xrotation Yrotation
              JOINT rThumb1
              {
                OFFSET -1.2192 -0.487915 3.41376
                CHANNELS 3 Zrotation Xrotation Yrotation
                JOINT rThumb2
                {
                  OFFSET -3.37035 -0.52449 3.41376
                  CHANNELS 3 Zrotation Xrotation Yrotation
                  End Site
                  {
                    OFFSET -1.78271 -1.18214 1.43049
                  }
                }
              }
              JOINT rIndex1
              {
                OFFSET -7.75947 0.938293 5.60832
                CHANNELS 3 Zrotation Xrotation Yrotation
                JOINT rIndex2
                {
                  OFFSET -2.54057 -0.884171 1.56538
                  CHANNELS 3 Zrotation Xrotation Yrotation
                  End Site
                  {
                    OFFSET -1.62519 -0.234802 1.16502
                  }
                }
              }
              JOINT rMid1
              {
                OFFSET -8.24714 1.18213 3.41376
                CHANNELS 3 Zrotation Xrotation Yrotation
                JOINT rMid2
                {
                  OFFSET -3.10165 -0.590103 1.0647
                  CHANNELS 3 Zrotation Xrotation Yrotation
                  End Site
                  {
                    OFFSET -2.48547 -0.328903 0.83742
                  }
                }
              }
              JOINT rRing1
              {
                OFFSET -8.82822 0.546677 1.51678
                CHANNELS 3 Zrotation Xrotation Yrotation
                JOINT rRing2
                {
                  OFFSET -2.60934 -0.819778 -0.0198488
                  CHANNELS 3 Zrotation Xrotation Yrotation
                  End Site
                  {
                    OFFSET -2.33842 -0.294052 0.168128
                  }
                }
              }
              JOINT rPinky1
              {
                OFFSET -8.27202 -0.0477905 -0.4584
                CHANNELS 3 Zrotation Xrotation Yrotation
                JOINT rPinky2
                {
                  OFFSET -1.82734 -0.647385 -0.700984
                  CHANNELS 3 Zrotation Xrotation Yrotation
                  End Site
                  {
                    OFFSET -1.69225 -0.51767 -0.607171
                  }
                }
              }
            }
          }
        }
      }
      JOINT lCollar
      {
        OFFSET 2.68224 19.2634 -4.8768
        CHANNELS 3 Zrotation Xrotation Yrotation
        JOINT lShldr
        {
          OFFSET 8.77824 -1.95073 1.46304
          CHANNELS 3 Zrotation Xrotation Yrotation
          JOINT lForeArm
          {
            OFFSET 28.1742 -1.7115 0.48768
            CHANNELS 3 Zrotation Xrotation Yrotation
            JOINT lHand
            {
              OFFSET 22.5879 0.773209 7.07136
              CHANNELS 3 Zrotation Xrotation Yrotation
              JOINT lThumb1
              {
                OFFSET 1.2192 -0.487915 3.41376
                CHANNELS 3 Zrotation Xrotation Yrotation
                JOINT lThumb2
                {
                  OFFSET 3.37035 -0.52449 3.41376
                  CHANNELS 3 Zrotation Xrotation Yrotation
                  End Site
                  {
                    OFFSET 1.78271 -1.18214 1.43049
                  }
                }
              }
              JOINT lIndex1
              {
                OFFSET 7.75947 0.938293 5.60832
                CHANNELS 3 Zrotation Xrotation Yrotation
                JOINT lIndex2
                {
                  OFFSET 2.54057 -0.884171 1.56538
                  CHANNELS 3 Zrotation Xrotation Yrotation
                  End Site
                  {
                    OFFSET 1.62519 -0.234802 1.16502
                  }
                }
              }
              JOINT lMid1
              {
                OFFSET 8.24714 1.18213 3.41376
                CHANNELS 3 Zrotation Xrotation Yrotation
                JOINT lMid2
                {
                  OFFSET 3.10165 -0.590103 1.0647
                  CHANNELS 3 Zrotation Xrotation Yrotation
                  End Site
                  {
                    OFFSET 2.48547 -0.328903 0.83742
                  }
                }
              }
              JOINT lRing1
              {
                OFFSET 8.82822 0.546677 1.51678
                CHANNELS 3 Zrotation Xrotation Yrotation
                JOINT lRing2
                {
                  OFFSET 2.60934 -0.819778 -0.0198488
                  CHANNELS 3 Zrotation Xrotation Yrotation
                  End Site
                  {
                    OFFSET 2.33842 -0.294052 0.168128
                  }
                }
              }
              JOINT lPinky1
              {
                OFFSET 8.27202 -0.0477905 -0.4584
                CHANNELS 3 Zrotation Xrotation Yrotation
                JOINT lPinky2
                {
                  OFFSET 1.82734 -0.647385 -0.700984
                  CHANNELS 3 Zrotation Xrotation Yrotation
                  End Site
                  {
                    OFFSET 1.69225 -0.51767 -0.607171
                  }
                }
              }
            }
          }
        }
      }
    }
  }
  JOINT rButtock
  {
    OFFSET -8.77824 4.35084 1.2192
    CHANNELS 3 Zrotation Xrotation Yrotation
    JOINT rThigh
    {
      OFFSET 0 -1.70687 -2.19456
      CHANNELS 3 Zrotation Xrotation Yrotation
      JOINT rShin
      {
        OFFSET 0 -36.8199 0.73152
        CHANNELS 3 Zrotation Xrotation Yrotation
        JOINT rFoot
        {
          OFFSET 0.73152 -45.1104 -5.12064
          CHANNELS 3 Zrotation Xrotation Yrotation
          End Site
          {
            OFFSET -1.1221 -3.69964 12.103
          }
        }
      }
    }
  }
  JOINT lButtock
  {
    OFFSET 8.77824 4.35084 1.2192
    CHANNELS 3 Zrotation Xrotation Yrotation
    JOINT lThigh
    {
      OFFSET 0 -1.70687 -2.19456
      CHANNELS 3 Zrotation Xrotation Yrotation
      JOINT lShin
      {
        OFFSET 0 -36.8199 0.73152
        CHANNELS 3 Zrotation Xrotation Yrotation
        JOINT lFoot
        {
          OFFSET -0.73152 -45.1104 -5.12064
          CHANNELS 3 Zrotation Xrotation Yrotation
          End Site
          {
            OFFSET 1.1221 -3.69964 12.103
          }
        }
      }
    }
  }
}
MOTION
Frames:	9
Frame Time:	0.00833333
-4.89284 84.3424 33.7784 -1.7066 10.9612 4.4988 4.71346 9.3664 -1.7677 -0.0267259 -6.37723 -0.390262 -7.3341 -2.53344 -5.39628 9.74832 -8.97459 -7.61057 -0.0 0.0 0.0 -0.0 0.0 0.0 9.56473e-15 -8.89552e-14 2.20104e-13 15.1855 30.6334 42.3515 -27.7866 -29.3938 66.1093 -0.76715 -24.0548 -3.59727 3.47932e-10 2.38458e-09 -5.50857e-10 6.06163e-10 4.13967e-09 -9.45128e-10 3.47948e-10 2.3846e-09 -5.50871e-10 7.73091 5.47488 0.417314 3.47932e-10 2.38458e-09 -5.50863e-10 2.90554 0.965183 0.102902 3.47941e-10 2.38458e-09 -5.50861e-10 10.2786 0.731801 0.0259123 3.47936e-10 2.38458e-09 -5.50856e-10 2.22167 -0.733487 -0.20892 9.58137e-15 -8.8957e-14 2.19977e-13 -32.1405 37.3274 -72.4738 26.8166 -25.7454 -60.4785 2.80011 -42.0351 7.27908 -4.20854e-10 3.03618e-09 6.0944e-10 -7.42803e-10 5.21888e-09 1.03144e-09 -4.20866e-10 3.0362e-09 6.09448e-10 -7.73091 5.47488 -0.417314 -4.20853e-10 3.03618e-09 6.09444e-10 -2.90554 0.965183 -0.102902 -4.20856e-10 3.03618e-09 6.0944e-10 -10.2786 0.731801 -0.0259123 -4.20844e-10 3.03618e-09 6.09436e-10 -2.22167 -0.733487 0.20892 -2.03217e-16 0.0 -3.88251e-19 -3.57751 1.36468 -8.29793 0.00533112 0.210883 0.0469983 -3.64165 -14.6824 -11.9731 2.03217e-16 0.0 3.88251e-19 9.00397 -16.4485 -7.38684 0.0733349 21.3248 -0.40578 1.7726 -11.6915 6.70485
-4.89588 84.339 33.8033 -1.6761 10.8525 4.5232 4.54743 9.26184 -1.92598 -0.0434679 -6.36419 -0.441639 -7.13995 -2.51507 -5.2753 9.84165 -8.87694 -7.43619 -0.0 0.0 0.0 -0.0 0.0 0.0 5.226e-14 -2.52817e-14 1.1986e-13 14.4455 31.6074 41.3766 -28.0262 -30.7248 68.2926 -0.852053 -25.2341 -3.79879 3.48439e-10 4.65805e-10 5.04077e-10 5.87572e-10 7.54806e-10 8.79749e-10 3.48455e-10 4.65833e-10 5.04061e-10 7.73091 5.47488 0.417314 3.48437e-10 4.65808e-10 5.0407e-10 2.90554 0.965183 0.102902 3.48447e-10 4.6581e-10 5.04072e-10 10.2786 0.731801 0.0259123 3.48443e-10 4.65811e-10 5.04081e-10 2.22167 -0.733487 -0.20892 5.23182e-14 -2.5284e-14 1.19781e-13 -31.7397 37.5519 -72.0957 26.9357 -26.1284 -61.0962 2.79971 -42.0336 7.27858 -4.80023e-10 2.54693e-09 4.42481e-10 -8.39557e-10 4.35572e-09 7.41719e-10 -4.80036e-10 2.54694e-09 4.4249e-10 -7.73091 5.47488 -0.417314 -4.80023e-10 2.54692e-09 4.42487e-10 -2.90554 0.965183 -0.102902 -4.80029e-10 2.54692e-09 4.4248e-10 -10.2786 0.731801 -0.0259123 -4.80011e-10 2.54693e-09 4.42478e-10 -2.22167 -0.733487 0.20892 -2.03217e-16 0.0 -3.88251e-19 -3.60881 1.35718 -8.20309 0.00535358 0.205303 0.0471935 -3.6614 -14.6905 -12.0176 2.03217e-16 0.0 3.88251e-19 8.9764 -16.3848 -7.40055 0.0745751 21.2916 -0.405813 1.79548 -11.7504 6.76929
-4.90971 84.3402 33.842 -1.7023 10.6981 4.4744 4.39961 9.16975 -2.06964 -0.0413256 -6.34961 -0.487154 -6.9563 -2.50416 -5.15183 9.89088 -8.76553 -7.25676 -0.0 0.0 0.0 -0.0 0.0 0.0 7.78811e-14 2.70359e-14 8.11041e-14 13.7435 32.3582 40.5601 -28.1951 -31.9407 70.3581 -0.949416 -26.5372 -4.02461 3.08366e-10 -8.35008e-10 1.13463e-09 5.07332e-10 -1.53177e-09 1.9695e-09 3.0838e-10 -8.34981e-10 1.13462e-09 7.73091 5.47488 0.417314 3.08363e-10 -8.35003e-10 1.13462e-09 2.90554 0.965183 0.102902 3.08372e-10 -8.35001e-10 1.13463e-09 10.2786 0.731801 0.0259123 3.08369e-10 -8.35e-10 1.13464e-09 2.22167 -0.733487 -0.20892 7.79712e-14 2.70337e-14 8.10544e-14 -31.3375 37.7873 -71.6718 27.0643 -26.5551 -61.7652 2.80206 -42.0478 7.28217 -4.16207e-10 2.14275e-09 3.861e-10 -7.28043e-10 3.65903e-09 6.46318e-10 -4.16221e-10 2.14276e-09 3.8611e-10 -7.73091 5.47488 -0.417314 -4.16208e-10 2.14274e-09 3.86107e-10 -2.90554 0.965183 -0.102902 -4.16216e-10 2.14274e-09 3.86099e-10 -10.2786 0.731801 -0.0259123 -4.16196e-10 2.14274e-09 3.86097e-10 -2.22167 -0.733487 0.20892 -2.03217e-16 0.0 -3.88251e-19 -3.63348 1.34813 -8.06233 0.00536735 0.199674 0.0473121 -3.67825 -14.7033 -12.0549 2.03217e-16 0.0 3.88251e-19 8.96937 -16.3063 -7.37559 0.0752859 21.2567 -0.405819 1.8192 -11.8092 6.83598
-4.92083 84.3421 33.8753 -1.7337 10.5085 4.4226 4.26809 9.09546 -2.19793 -0.00536486 -6.33258 -0.525706 -6.78597 -2.50104 -5.02527 9.87612 -8.63367 -7.072 -0.0 0.0 0.0 -0.0 0.0 0.0 7.77137e-14 6.39224e-14 1.48649e-13 13.0102 32.8606 39.9368 -28.3303 -33.1346 72.2905 -1.07157 -28.09 -4.29916 1.92708e-10 -1.26096e-09 1.1259e-09 3.09464e-10 -2.26005e-09 1.9516e-09 1.92719e-10 -1.26093e-09 1.12588e-09 7.73091 5.47488 0.417314 1.92705e-10 -1.26095e-09 1.12589e-09 2.90554 0.965183 0.102902 1.92713e-10 -1.26095e-09 1.1259e-09 10.2786 0.731801 0.0259123 1.9271e-10 -1.26095e-09 1.12591e-09 2.22167 -0.733487 -0.20892 7.78233e-14 6.39214e-14 1.48602e-13 -30.9328 38.0308 -71.1897 27.2002 -27.0282 -62.5045 2.80447 -42.0614 7.28572 -1.34741e-10 1.887e-09 5.31571e-10 -2.48146e-10 3.25286e-09 9.05219e-10 -1.34753e-10 1.88702e-09 5.31581e-10 -7.73091 5.47488 -0.417314 -1.34741e-10 1.887e-09 5.31577e-10 -2.90554 0.965183 -0.102902 -1.34751e-10 1.887e-09 5.31569e-10 -10.2786 0.731801 -0.0259123 -1.34732e-10 1.887e-09 5.31565e-10 -2.22167 -0.733487 0.20892 -2.03217e-16 0.0 -3.88251e-19 -3.64962 1.3402 -7.86372 0.00536921 0.194092 0.047326 -3.69109 -14.7262 -12.0811 2.03217e-16 0.0 3.88251e-19 8.98804 -16.2066 -7.30474 0.0752386 21.2179 -0.405763 1.84405 -11.8695 6.90513
-4.92434 84.3415 33.8935 -1.7051 10.263 4.4267 4.14609 9.03227 -2.31203 0.0478829 -6.31603 -0.558831 -6.61509 -2.50292 -4.89508 9.8083 -8.48884 -6.88452 -0.0 0.0 0.0 -0.0 0.0 0.0 6.10728e-14 9.67086e-14 2.80451e-13 12.2978 33.156 39.4599 -28.4237 -34.3459 74.1909 -1.22608 -29.8555 -4.62281 1.84079e-11 -1.24639e-09 7.50997e-10 1.79004e-11 -2.19975e-09 1.29896e-09 1.84151e-11 -1.24637e-09 7.50985e-10 7.73091 5.47488 0.417314 1.8405e-11 -1.24639e-09 7.50995e-10 2.90554 0.965183 0.102902 1.8411e-11 -1.24639e-09 7.50997e-10 10.2786 0.731801 0.0259123 1.84081e-11 -1.24638e-09 7.51008e-10 2.22167 -0.733487 -0.20892 6.11962e-14 9.67096e-14 2.80392e-13 -30.5019 38.2819 -70.6635 27.3371 -27.5366 -63.317 2.81038 -42.0952 7.29446 2.96109e-10 1.62398e-09 7.85151e-10 4.85537e-10 2.85545e-09 1.35487e-09 2.961e-10 1.62399e-09 7.85161e-10 -7.73091 5.47488 -0.417314 2.96109e-10 1.62399e-09 7.85156e-10 -2.90554 0.965183 -0.102902 2.96099e-10 1.62397e-09 7.85148e-10 -10.2786 0.731801 -0.0259123 2.96115e-10 1.62398e-09 7.85141e-10 -2.22167 -0.733487 0.20892 -2.03217e-16 0.0 -3.88251e-19 -3.66435 1.32999 -7.61545 0.00536403 0.188186 0.0472781 -3.70231 -14.7556 -12.1027 2.03217e-16 0.0 3.88251e-19 9.02129 -16.0892 -7.19854 0.0747245 21.1743 -0.405652 1.87088 -11.9335 6.97938
-4.92934 84.3418 33.9137 -1.671 9.9801 4.4193 4.04356 8.97331 -2.41283 0.0972065 -6.29985 -0.587857 -6.44754 -2.51111 -4.76298 9.7233 -8.34037 -6.69312 -0.0 0.0 0.0 -0.0 0.0 0.0 4.05793e-14 1.26066e-13 4.07213e-13 11.6749 33.2593 39.0992 -28.4536 -35.4554 75.9978 -1.39611 -31.5768 -4.95247 -1.4848e-10 -1.04359e-09 2.88631e-10 -2.59358e-10 -1.80858e-09 4.95049e-10 -1.48477e-10 -1.04358e-09 2.88621e-10 7.73091 5.47488 0.417314 -1.48482e-10 -1.04358e-09 2.88631e-10 2.90554 0.965183 0.102902 -1.48478e-10 -1.04358e-09 2.88633e-10 10.2786 0.731801 0.0259123 -1.48482e-10 -1.04358e-09 2.88644e-10 2.22167 -0.733487 -0.20892 4.07123e-14 1.26069e-13 4.07134e-13 -30.0685 38.5427 -70.1046 27.4718 -28.068 -64.1726 2.82338 -42.1703 7.31384 7.14545e-10 1.32789e-09 1.01178e-09 1.1987e-09 2.39902e-09 1.75797e-09 7.14538e-10 1.32789e-09 1.01179e-09 -7.73091 5.47488 -0.417314 7.14546e-10 1.32791e-09 1.01179e-09 -2.90554 0.965183 -0.102902 7.14535e-10 1.32788e-09 1.01178e-09 -10.2786 0.731801 -0.0259123 7.14547e-10 1.32788e-09 1.01177e-09 -2.22167 -0.733487 0.20892 -2.03217e-16 0.0 -3.88251e-19 -3.6764 1.31397 -7.33824 0.00535533 0.182016 0.0471994 -3.71259 -14.7821 -12.1234 2.03217e-16 0.0 3.88251e-19 9.06495 -15.9661 -7.06561 0.0740404 21.1312 -0.405564 1.89843 -11.9958 7.05626
-4.94968 84.341 33.9297 -1.7003 9.6839 4.4158 3.9704 8.91167 -2.50124 0.121397 -6.28392 -0.614111 -6.28721 -2.52694 -4.63071 9.65713 -8.19759 -6.49658 -0.0 0.0 0.0 -0.0 0.0 0.0 2.88541e-14 1.52665e-13 4.5964e-13 11.2133 33.1863 38.8238 -28.4247 -36.3548 77.605 -1.55189 -32.9978 -5.23613 -2.41902e-10 -9.04826e-10 1.75026e-11 -4.14309e-10 -1.54429e-09 2.33596e-11 -2.41901e-10 -9.04825e-10 1.74931e-11 7.73091 5.47488 0.417314 -2.41904e-10 -9.04825e-10 1.75026e-11 2.90554 0.965183 0.102902 -2.41901e-10 -9.04825e-10 1.75058e-11 10.2786 0.731801 0.0259123 -2.41905e-10 -9.04823e-10 1.75153e-11 2.22167 -0.733487 -0.20892 2.89941e-14 1.52669e-13 4.5954e-13 -29.6559 38.8156 -69.525 27.6024 -28.6135 -65.0403 2.84721 -42.3084 7.34941 9.58769e-10 9.7294e-10 1.07641e-09 1.61702e-09 1.81576e-09 1.87725e-09 9.58764e-10 9.7294e-10 1.07642e-09 -7.73091 5.47488 -0.417314 9.5877e-10 9.7296e-10 1.07641e-09 -2.90554 0.965183 -0.102902 9.5876e-10 9.72934e-10 1.0764e-09 -10.2786 0.731801 -0.0259123 9.58769e-10 9.72931e-10 1.07639e-09 -2.22167 -0.733487 0.20892 -2.03217e-16 0.0 -3.88251e-19 -3.68442 1.28862 -7.05282 0.00534664 0.175641 0.0471207 -3.7226 -14.7961 -12.1472 2.03217e-16 0.0 3.88251e-19 9.11501 -15.849 -6.91453 0.0734825 21.0941 -0.405578 1.92545 -12.0516 7.13332
-4.97197 84.3378 33.9366 -1.7292 9.374 4.436 3.94003 8.84322 -2.58466 0.115253 -6.26824 -0.63973 -6.14052 -2.56035 -4.49614 9.62473 -8.0547 -6.2871 -0.0 0.0 0.0 -0.0 0.0 0.0 3.10696e-14 1.83887e-13 3.95939e-13 10.9207 32.8996 38.6349 -28.3796 -37.108 78.9706 -1.6785 -34.0965 -5.46105 -2.25334e-10 -8.78102e-10 4.31286e-11 -3.86331e-10 -1.49795e-09 6.688e-11 -2.25332e-10 -8.78108e-10 4.31183e-11 7.73091 5.47488 0.417314 -2.25336e-10 -8.781e-10 4.31269e-11 2.90554 0.965183 0.102902 -2.25333e-10 -8.78101e-10 4.31307e-11 10.2786 0.731801 0.0259123 -2.25337e-10 -8.78099e-10 4.31397e-11 2.22167 -0.733487 -0.20892 3.12172e-14 1.83891e-13 3.95813e-13 -29.2567 39.1063 -68.9015 27.7332 -29.1958 -65.9475 2.88887 -42.5474 7.41139 9.47348e-10 4.50803e-10 8.71501e-10 1.6037e-09 9.05474e-10 1.52533e-09 9.47345e-10 4.50794e-10 8.71509e-10 -7.73091 5.47488 -0.417314 9.4735e-10 4.50819e-10 8.71502e-10 -2.90554 0.965183 -0.102902 9.47341e-10 4.50797e-10 8.71497e-10 -10.2786 0.731801 -0.0259123 9.47348e-10 4.50795e-10 8.71487e-10 -2.22167 -0.733487 0.20892 -2.03217e-16 0.0 -3.88251e-19 -3.68159 1.24882 -6.76001 0.00534176 0.170246 0.0470763 -3.73262 -14.7996 -12.1728 2.03217e-16 0.0 3.88251e-19 9.18519 -15.7446 -6.71457 0.073165 21.0668 -0.405519 1.9434 -12.0886 7.18453
-4.9884 84.3355 33.9481 -1.7362 9.0616 4.4313 3.94363 8.77242 -2.66023 0.0899303 -6.25286 -0.663411 -6.00346 -2.60746 -4.35919 9.60498 -7.90947 -6.06782 -0.0 0.0 0.0 -0.0 0.0 0.0 3.98924e-14 2.16972e-13 2.6084e-13 10.7596 32.4061 38.5504 -28.3395 -37.7879 80.1081 -1.78379 -34.995 -5.64763 -1.40307e-10 -8.35292e-10 2.06469e-10 -2.4363e-10 -1.43577e-09 3.49732e-10 -1.40304e-10 -8.35307e-10 2.06457e-10 7.73091 5.47488 0.417314 -1.40309e-10 -8.35291e-10 2.06464e-10 2.90554 0.965183 0.102902 -1.40305e-10 -8.35291e-10 2.06469e-10 10.2786 0.731801 0.0259123 -1.40311e-10 -8.35288e-10 2.06477e-10 2.22167 -0.733487 -0.20892 4.00465e-14 2.16976e-13 2.60678e-13 -28.8647 39.41 -68.2339 27.858 -29.8066 -66.9071 2.9453 -42.8652 7.4947 7.79338e-10 -1.9095e-10 4.92929e-10 1.32625e-09 -2.34976e-10 8.7012e-10 7.79336e-10 -1.9097e-10 4.92936e-10 -7.73091 5.47488 -0.417314 7.79338e-10 -1.90942e-10 4.92929e-10 -2.90554 0.965183 -0.102902 7.79334e-10 -1.90956e-10 4.92926e-10 -10.2786 0.731801 -0.0259123 7.79338e-10 -1.90956e-10 4.92919e-10 -2.22167 -0.733487 0.20892 -2.03217e-16 0.0 -3.88251e-19 -3.67044 1.19779 -6.45032 0.00533787 0.165411 0.0470412 -3.74225 -14.7962 -12.1988 2.03217e-16 0.0 3.88251e-19 9.27235 -15.645 -6.47222 0.072918 21.0456 -0.40541 1.9556 -12.1131 7.21963
